<svg xmlns="http://www.w3.org/2000/svg" width="80" height="80" viewBox="0 0 80 80" fill="none"><circle cx="40" cy="40" r="40" fill="#F5F5F5"></circle><g clip-path="url(#clip0)"><path d="M40 25.7617C39.31 25.7617 38.75 25.2017 38.75 24.5117V21.25C38.75 20.56 39.31 20 40 20C40.69 20 41.25 20.56 41.25 21.25V24.5117C41.25 25.2017 40.69 25.7617 40 25.7617Z" fill="url(#paint0_linear)"></path><path d="M50.9517 30.2983C50.6317 30.2983 50.3117 30.1766 50.0684 29.9316C49.5801 29.4433 49.5801 28.6516 50.0684 28.1633L52.3751 25.8566C52.8634 25.3683 53.6551 25.3683 54.1434 25.8566C54.6317 26.3449 54.6317 27.1366 54.1434 27.6249L51.8367 29.9316C51.5917 30.1749 51.2717 30.2983 50.9517 30.2983Z" fill="url(#paint1_linear)"></path><path d="M58.7497 41.25H55.488C54.798 41.25 54.238 40.69 54.238 40C54.238 39.31 54.798 38.75 55.488 38.75H58.7497C59.4397 38.75 59.9997 39.31 59.9997 40C59.9997 40.69 59.4397 41.25 58.7497 41.25Z" fill="url(#paint2_linear)"></path><path d="M53.2584 54.5083C52.9384 54.5083 52.6184 54.3867 52.3751 54.1417L50.0684 51.835C49.5801 51.3467 49.5801 50.555 50.0684 50.0667C50.5567 49.5784 51.3484 49.5784 51.8367 50.0667L54.1434 52.3734C54.6317 52.8617 54.6317 53.6534 54.1434 54.1417C53.8984 54.3867 53.5784 54.5083 53.2584 54.5083Z" fill="url(#paint3_linear)"></path><path d="M26.7415 54.5083C26.4215 54.5083 26.1015 54.3867 25.8582 54.1417C25.3699 53.6534 25.3699 52.8617 25.8582 52.3734L28.1649 50.0667C28.6532 49.5784 29.4449 49.5784 29.9332 50.0667C30.4215 50.555 30.4215 51.3467 29.9332 51.835L27.6265 54.1417C27.3815 54.3867 27.0615 54.5083 26.7415 54.5083Z" fill="url(#paint4_linear)"></path><path d="M24.5117 41.25H21.25C20.56 41.25 20 40.69 20 40C20 39.31 20.56 38.75 21.25 38.75H24.5117C25.2017 38.75 25.7617 39.31 25.7617 40C25.7617 40.69 25.2017 41.25 24.5117 41.25Z" fill="url(#paint5_linear)"></path><path d="M29.0482 30.2983C28.7282 30.2983 28.4082 30.1766 28.1649 29.9316L25.8582 27.6249C25.3699 27.1366 25.3699 26.3449 25.8582 25.8566C26.3465 25.3683 27.1382 25.3683 27.6265 25.8566L29.9332 28.1633C30.4215 28.6516 30.4215 29.4433 29.9332 29.9316C29.6865 30.1749 29.3682 30.2983 29.0482 30.2983Z" fill="url(#paint6_linear)"></path><path d="M45 55V57.0833C45 58.6833 43.6833 60 42.0833 60H37.9167C36.5167 60 35 58.9333 35 56.6V55H45Z" fill="url(#paint7_linear)"></path><path d="M47.3496 30.9334C44.6163 28.7167 41.0163 27.8501 37.4996 28.6001C33.083 29.5167 29.4996 33.1167 28.583 37.5334C27.6496 42.0667 29.3496 46.5667 32.983 49.3167C33.9663 50.0501 34.6496 51.1834 34.883 52.5001V52.5167C34.9163 52.5001 34.9663 52.5001 34.9996 52.5001H44.9996C45.033 52.5001 45.0496 52.5001 45.083 52.5167V52.5001C45.3163 51.2334 46.0663 50.0667 47.2163 49.1667C50.033 46.9334 51.6663 43.6001 51.6663 40.0001C51.6663 36.4667 50.0996 33.1667 47.3496 30.9334ZM46.2496 40.8334C45.5663 40.8334 44.9996 40.2667 44.9996 39.5834C44.9996 37.0501 42.9496 35.0001 40.4163 35.0001C39.733 35.0001 39.1663 34.4334 39.1663 33.7501C39.1663 33.0667 39.733 32.5001 40.4163 32.5001C44.3163 32.5001 47.4996 35.6834 47.4996 39.5834C47.4996 40.2667 46.933 40.8334 46.2496 40.8334Z" fill="url(#paint8_linear)"></path><path d="M34.8833 52.5H35C34.9666 52.5 34.9166 52.5 34.8833 52.5167V52.5Z" fill="url(#paint9_linear)"></path><path d="M45.0833 52.5V52.5167C45.05 52.5 45.0333 52.5 45 52.5H45.0833Z" fill="url(#paint10_linear)"></path></g><defs><linearGradient id="paint0_linear" x1="38.75" y1="20" x2="41.6958" y2="20.2377" gradientUnits="userSpaceOnUse"><stop stop-color="#FFB928"></stop><stop offset="1" stop-color="#FECF36"></stop></linearGradient><linearGradient id="paint1_linear" x1="49.7021" y1="25.4904" x2="55.2131" y2="26.5152" gradientUnits="userSpaceOnUse"><stop stop-color="#FFB928"></stop><stop offset="1" stop-color="#FECF36"></stop></linearGradient><linearGradient id="paint2_linear" x1="54.238" y1="38.75" x2="60.0108" y2="41.2243" gradientUnits="userSpaceOnUse"><stop stop-color="#FFB928"></stop><stop offset="1" stop-color="#FECF36"></stop></linearGradient><linearGradient id="paint3_linear" x1="49.7021" y1="49.7004" x2="55.2131" y2="50.7253" gradientUnits="userSpaceOnUse"><stop stop-color="#FFB928"></stop><stop offset="1" stop-color="#FECF36"></stop></linearGradient><linearGradient id="paint4_linear" x1="25.4919" y1="49.7004" x2="31.0029" y2="50.7253" gradientUnits="userSpaceOnUse"><stop stop-color="#FFB928"></stop><stop offset="1" stop-color="#FECF36"></stop></linearGradient><linearGradient id="paint5_linear" x1="20" y1="38.75" x2="25.7727" y2="41.2243" gradientUnits="userSpaceOnUse"><stop stop-color="#FFB928"></stop><stop offset="1" stop-color="#FECF36"></stop></linearGradient><linearGradient id="paint6_linear" x1="25.4919" y1="25.4904" x2="31.0029" y2="26.5152" gradientUnits="userSpaceOnUse"><stop stop-color="#FFB928"></stop><stop offset="1" stop-color="#FECF36"></stop></linearGradient><linearGradient id="paint7_linear" x1="35" y1="55" x2="45.4184" y2="58.8752" gradientUnits="userSpaceOnUse"><stop stop-color="#FFB928"></stop><stop offset="1" stop-color="#FECF36"></stop></linearGradient><linearGradient id="paint8_linear" x1="28.3308" y1="28.3357" x2="55.1425" y2="33.1477" gradientUnits="userSpaceOnUse"><stop stop-color="#FFB928"></stop><stop offset="1" stop-color="#FECF36"></stop></linearGradient><linearGradient id="paint9_linear" x1="34.8833" y1="52.5" x2="34.9346" y2="52.5668" gradientUnits="userSpaceOnUse"><stop stop-color="#FFB928"></stop><stop offset="1" stop-color="#FECF36"></stop></linearGradient><linearGradient id="paint10_linear" x1="45" y1="52.5" x2="45.053" y2="52.5493" gradientUnits="userSpaceOnUse"><stop stop-color="#FFB928"></stop><stop offset="1" stop-color="#FECF36"></stop></linearGradient><clipPath id="clip0"><rect width="40" height="40" fill="white" transform="translate(20 20)"></rect></clipPath></defs></svg>