<svg xmlns="http://www.w3.org/2000/svg" width="80" height="80" viewBox="0 0 80 80" fill="none"><circle cx="40" cy="40" r="40" fill="#F5F5F5"></circle><g clip-path="url(#clip0)"><path d="M27.6562 55.3125V56.8723C27.6562 58.5968 29.0594 60 30.784 60H49.1379C50.8624 60 52.2656 58.5968 52.2656 56.8723V55.3125H27.6562Z" fill="url(#paint0_linear)"></path><path d="M49.1379 20H30.784C29.0594 20 27.6562 21.4032 27.6562 23.1277V52.9688H52.2656V23.1277C52.2656 21.4032 50.8624 20 49.1379 20V20ZM36.6711 41.8637C37.0657 42.3767 36.9696 43.1125 36.4566 43.5071C36.2436 43.6707 35.9924 43.75 35.7431 43.75C35.3915 43.75 35.0439 43.5925 34.8132 43.2925L32.5717 40.3784C32.1881 39.8795 32.1881 39.1827 32.5714 38.6841L34.8132 35.77C35.2078 35.257 35.9436 35.1608 36.4566 35.5554C36.9696 35.95 37.0657 36.6858 36.6711 37.1988L34.877 39.5312L36.6711 41.8637ZM41.788 36.8158L39.9911 42.9095C39.8407 43.4198 39.3738 43.7503 38.8678 43.7503C38.7579 43.7503 38.6465 43.7347 38.5358 43.7021C37.915 43.5193 37.5601 42.8674 37.7432 42.2467L39.5401 36.153C39.7232 35.5322 40.3748 35.1773 40.9955 35.3604C41.6162 35.5435 41.9711 36.1951 41.788 36.8158ZM37.5781 25.3906C36.9308 25.3906 36.4062 24.866 36.4062 24.2188C36.4062 23.5715 36.9308 23.0469 37.5781 23.0469H42.3438C42.991 23.0469 43.5156 23.5715 43.5156 24.2188C43.5156 24.866 42.991 25.3906 42.3438 25.3906H37.5781ZM47.0377 40.3784L44.7961 43.2925C44.5651 43.5925 44.2175 43.75 43.8663 43.75C43.6169 43.75 43.3655 43.6707 43.1528 43.5071C42.6398 43.1125 42.5436 42.3767 42.9382 41.8637L44.7324 39.5312L42.9382 37.1988C42.5436 36.6858 42.6398 35.95 43.1528 35.5554C43.6658 35.1611 44.4016 35.257 44.7961 35.77L47.0377 38.6841C47.4213 39.1827 47.4213 39.8795 47.0377 40.3784Z" fill="url(#paint1_linear)"></path></g><defs><linearGradient id="paint0_linear" x1="27.6562" y1="55.3125" x2="42.5981" y2="69.9014" gradientUnits="userSpaceOnUse"><stop stop-color="#FFB928"></stop><stop offset="1" stop-color="#FECF36"></stop></linearGradient><linearGradient id="paint1_linear" x1="27.6562" y1="20" x2="56.2906" y2="23.9751" gradientUnits="userSpaceOnUse"><stop stop-color="#FFB928"></stop><stop offset="1" stop-color="#FECF36"></stop></linearGradient><clipPath id="clip0"><rect width="40" height="40" fill="white" transform="translate(20 20)"></rect></clipPath></defs></svg>