<svg xmlns="http://www.w3.org/2000/svg" width="80" height="80" viewBox="0 0 80 80" fill="none"><circle cx="40" cy="40" r="40" fill="#F5F5F5"></circle><path d="M28.5839 31.5992C28.8062 31.1029 28.9309 30.5538 28.9309 29.9758C28.9309 29.6917 28.9005 29.4147 28.8437 29.1473C28.4612 27.3459 26.8589 25.9902 24.9453 25.9902C22.7476 25.9902 20.9597 27.7781 20.9597 29.9758C20.9597 32.1734 22.7476 33.9614 24.9453 33.9614C25.7135 33.9614 26.4314 33.7423 27.0406 33.3643L28.626 34.7502C29.0709 34.1034 29.5893 33.5109 30.1697 32.9856L28.5839 31.5992Z" fill="url(#paint0_linear)"></path><path d="M49.1242 20C46.4571 20 44.2873 22.1698 44.2873 24.837C44.2873 25.1818 44.3242 25.518 44.3931 25.8426C44.5472 26.5684 44.8649 27.2341 45.3053 27.8002L42.1099 31.8673C42.7798 32.2784 43.398 32.7658 43.9521 33.3175L47.1478 29.2501C47.7517 29.5216 48.4203 29.6741 49.1242 29.6741C51.7913 29.6741 53.9613 27.5042 53.9613 24.837C53.9613 22.1698 51.7913 20 49.1242 20Z" fill="url(#paint1_linear)"></path><path d="M29.5521 52.1188L31.8453 49.0685C31.1665 48.6716 30.5381 48.1977 29.9727 47.6578L27.6798 50.7076C27.1007 50.462 26.4643 50.326 25.7967 50.326C23.1296 50.326 20.9597 52.4958 20.9597 55.163C20.9597 57.8302 23.1296 60.0001 25.7967 60.0001C28.4638 60.0001 30.6337 57.8302 30.6337 55.163C30.6337 54.8461 30.6021 54.5364 30.5437 54.2362C30.3894 53.4448 30.042 52.722 29.5521 52.1188Z" fill="url(#paint2_linear)"></path><path d="M36.8857 32.7389C32.6542 32.7389 29.2114 36.1815 29.2114 40.4131C29.2114 44.6446 32.6541 48.0873 36.8857 48.0873C41.1173 48.0873 44.5599 44.6447 44.5599 40.4131C44.5599 36.1815 41.1174 32.7389 36.8857 32.7389Z" fill="url(#paint3_linear)"></path><path d="M52.6298 43.5137C50.7292 43.5137 49.02 44.3459 47.8449 45.6641L46.0083 44.5545C45.6813 45.2719 45.272 45.944 44.7927 46.5592L46.6298 47.6691C46.3651 48.3711 46.2191 49.1309 46.2191 49.9244C46.2191 50.3445 46.2609 50.7548 46.3384 51.1527C46.9131 54.1019 49.5149 56.3352 52.6298 56.3352C56.1647 56.3352 59.0405 53.4593 59.0405 49.9244C59.0406 46.3895 56.1648 43.5137 52.6298 43.5137Z" fill="url(#paint4_linear)"></path><defs><linearGradient id="paint0_linear" x1="20.9597" y1="25.9902" x2="31.4803" y2="28.0473" gradientUnits="userSpaceOnUse"><stop stop-color="#FFB928"></stop><stop offset="1" stop-color="#FECF36"></stop></linearGradient><linearGradient id="paint1_linear" x1="42.1099" y1="20" x2="55.7906" y2="22.2642" gradientUnits="userSpaceOnUse"><stop stop-color="#FFB928"></stop><stop offset="1" stop-color="#FECF36"></stop></linearGradient><linearGradient id="paint2_linear" x1="20.9597" y1="47.6578" x2="33.5316" y2="49.72" gradientUnits="userSpaceOnUse"><stop stop-color="#FFB928"></stop><stop offset="1" stop-color="#FECF36"></stop></linearGradient><linearGradient id="paint3_linear" x1="29.2114" y1="32.7389" x2="46.8059" y2="36.0111" gradientUnits="userSpaceOnUse"><stop stop-color="#FFB928"></stop><stop offset="1" stop-color="#FECF36"></stop></linearGradient><linearGradient id="paint4_linear" x1="44.7927" y1="43.5137" x2="60.9982" y2="46.8628" gradientUnits="userSpaceOnUse"><stop stop-color="#FFB928"></stop><stop offset="1" stop-color="#FECF36"></stop></linearGradient></defs></svg>