<svg xmlns="http://www.w3.org/2000/svg" width="80" height="80" viewBox="0 0 80 80" fill="none"><circle cx="40" cy="40" r="40" fill="#F5F5F5"></circle><g clip-path="url(#clip0)"><path d="M55 20H25C22.2433 20 20 22.2433 20 25C20 27.7567 22.2433 30 25 30H55C57.7567 30 60 27.7567 60 25C60 22.2433 57.7567 20 55 20ZM25.8333 27.5C24.4533 27.5 23.3333 26.38 23.3333 25C23.3333 23.62 24.4533 22.5 25.8333 22.5C27.2133 22.5 28.3333 23.62 28.3333 25C28.3333 26.38 27.2133 27.5 25.8333 27.5ZM34.1667 27.5C32.7867 27.5 31.6667 26.38 31.6667 25C31.6667 23.62 32.7867 22.5 34.1667 22.5C35.5467 22.5 36.6667 23.62 36.6667 25C36.6667 26.38 35.5467 27.5 34.1667 27.5Z" fill="url(#paint0_linear)"></path><path d="M55 33.3333H25C22.2433 33.3333 20 35.5766 20 38.3333C20 41.0899 22.2433 43.3333 25 43.3333H55C57.7567 43.3333 60 41.0899 60 38.3333C60 35.5766 57.7567 33.3333 55 33.3333ZM25.8333 40.8333C24.4533 40.8333 23.3333 39.7133 23.3333 38.3333C23.3333 36.9533 24.4533 35.8333 25.8333 35.8333C27.2133 35.8333 28.3333 36.9533 28.3333 38.3333C28.3333 39.7133 27.2133 40.8333 25.8333 40.8333ZM34.1667 40.8333C32.7867 40.8333 31.6667 39.7133 31.6667 38.3333C31.6667 36.9533 32.7867 35.8333 34.1667 35.8333C35.5467 35.8333 36.6667 36.9533 36.6667 38.3333C36.6667 39.7133 35.5467 40.8333 34.1667 40.8333Z" fill="url(#paint1_linear)"></path><path d="M55 46.6667H25C22.2433 46.6667 20 48.9101 20 51.6667C20 54.4234 22.2433 56.6667 25 56.6667H55C57.7567 56.6667 60 54.4234 60 51.6667C60 48.9101 57.7567 46.6667 55 46.6667ZM25.8333 54.1667C24.4533 54.1667 23.3333 53.0467 23.3333 51.6667C23.3333 50.2867 24.4533 49.1667 25.8333 49.1667C27.2133 49.1667 28.3333 50.2867 28.3333 51.6667C28.3333 53.0467 27.2133 54.1667 25.8333 54.1667ZM34.1667 54.1667C32.7867 54.1667 31.6667 53.0467 31.6667 51.6667C31.6667 50.2867 32.7867 49.1667 34.1667 49.1667C35.5467 49.1667 36.6667 50.2867 36.6667 51.6667C36.6667 53.0467 35.5467 54.1667 34.1667 54.1667Z" fill="url(#paint2_linear)"></path></g><defs><linearGradient id="paint0_linear" x1="20" y1="20" x2="50.5389" y2="42.7181" gradientUnits="userSpaceOnUse"><stop stop-color="#FFB928"></stop><stop offset="1" stop-color="#FECF36"></stop></linearGradient><linearGradient id="paint1_linear" x1="20" y1="33.3333" x2="50.5389" y2="56.0514" gradientUnits="userSpaceOnUse"><stop stop-color="#FFB928"></stop><stop offset="1" stop-color="#FECF36"></stop></linearGradient><linearGradient id="paint2_linear" x1="20" y1="46.6667" x2="50.5389" y2="69.3848" gradientUnits="userSpaceOnUse"><stop stop-color="#FFB928"></stop><stop offset="1" stop-color="#FECF36"></stop></linearGradient><clipPath id="clip0"><rect width="40" height="40" fill="white" transform="translate(20 20)"></rect></clipPath></defs></svg>