<svg xmlns="http://www.w3.org/2000/svg" width="80" height="80" viewBox="0 0 80 80" fill="none"><circle cx="40" cy="40" r="40" fill="#F5F5F5"></circle><g clip-path="url(#clip0)"><path d="M35 46.6667H26.6667C25.745 46.6667 25 45.9201 25 45.0001V33.3334C25 32.4134 25.745 31.6667 26.6667 31.6667H35C35.9217 31.6667 36.6667 32.4134 36.6667 33.3334V45.0001C36.6667 45.9201 35.9217 46.6667 35 46.6667Z" fill="url(#paint0_linear)"></path><path d="M52.4997 35.0001H39.9997C39.078 35.0001 38.333 34.2534 38.333 33.3334C38.333 32.4134 39.078 31.6667 39.9997 31.6667H52.4997C53.4213 31.6667 54.1663 32.4134 54.1663 33.3334C54.1663 34.2534 53.4213 35.0001 52.4997 35.0001Z" fill="url(#paint1_linear)"></path><path d="M50.833 43.3334H39.9997C39.078 43.3334 38.333 42.5867 38.333 41.6667V38.3334C38.333 37.4134 39.078 36.6667 39.9997 36.6667H50.833C51.7547 36.6667 52.4997 37.4134 52.4997 38.3334V41.6667C52.4997 42.5867 51.7547 43.3334 50.833 43.3334ZM41.6663 40.0001H49.1663H41.6663Z" fill="url(#paint2_linear)"></path><path d="M57.0833 26.6667H22.9167C21.3083 26.6667 20 27.9751 20 29.5834V52.0834C20 53.6918 21.3083 55.0001 22.9167 55.0001H57.0833C58.6917 55.0001 60 53.6918 60 52.0834V29.5834C60 27.9751 58.6917 26.6667 57.0833 26.6667ZM56.6667 48.3334H23.3333V30.0001H56.6667V48.3334Z" fill="url(#paint3_linear)"></path><path d="M46.4231 58.5766C44.2347 56.3883 44.1681 54.2666 44.1664 54.1616C44.1631 53.7033 43.7914 53.3333 43.3331 53.3333H36.6331C36.1731 53.3333 35.7997 53.7116 35.7997 54.1716C35.7997 54.2616 35.7697 56.3849 33.5781 58.5783C33.3397 58.8166 33.2681 59.1749 33.3981 59.4866C33.5247 59.7966 33.8297 59.9999 34.1664 59.9999H45.8331C46.1697 59.9999 46.4747 59.7966 46.6031 59.4849C46.7314 59.1733 46.6597 58.8166 46.4231 58.5766Z" fill="url(#paint4_linear)"></path></g><defs><linearGradient id="paint0_linear" x1="25" y1="31.6667" x2="38.5528" y2="33.6271" gradientUnits="userSpaceOnUse"><stop stop-color="#FFB928"></stop><stop offset="1" stop-color="#FECF36"></stop></linearGradient><linearGradient id="paint1_linear" x1="38.333" y1="31.6667" x2="48.8802" y2="40.984" gradientUnits="userSpaceOnUse"><stop stop-color="#FFB928"></stop><stop offset="1" stop-color="#FECF36"></stop></linearGradient><linearGradient id="paint2_linear" x1="38.333" y1="36.6667" x2="52.8647" y2="42.4097" gradientUnits="userSpaceOnUse"><stop stop-color="#FFB928"></stop><stop offset="1" stop-color="#FECF36"></stop></linearGradient><linearGradient id="paint3_linear" x1="20" y1="26.6667" x2="64.3797" y2="38.3189" gradientUnits="userSpaceOnUse"><stop stop-color="#FFB928"></stop><stop offset="1" stop-color="#FECF36"></stop></linearGradient><linearGradient id="paint4_linear" x1="33.334" y1="53.3333" x2="47.2242" y2="58.4992" gradientUnits="userSpaceOnUse"><stop stop-color="#FFB928"></stop><stop offset="1" stop-color="#FECF36"></stop></linearGradient><clipPath id="clip0"><rect width="40" height="40" fill="white" transform="translate(20 20)"></rect></clipPath></defs></svg>