<svg xmlns="http://www.w3.org/2000/svg" width="100" height="100" viewBox="0 0 100 100" fill="none"><circle cx="50" cy="50" r="49" stroke="white" stroke-width="2"></circle><path d="M45.5426 69.3249L45.3957 70.0424L45.5373 69.3241C45.1405 69.2459 44.7552 69.5042 44.677 69.9009C44.5988 70.298 44.8571 70.6829 45.2542 70.7611C45.2554 70.7615 45.2664 70.7634 45.2676 70.7638C45.3141 70.7726 45.3603 70.7772 45.406 70.7772C45.7505 70.7772 46.0576 70.533 46.1243 70.1821C46.2006 69.7846 45.9401 69.4008 45.5426 69.3249Z" fill="white"></path><path d="M51.1431 69.5603L51.2159 70.2889L51.1408 69.5607C50.7383 69.6019 50.4458 69.9616 50.4873 70.3641C50.5259 70.741 50.844 71.0217 51.2148 71.0217C51.24 71.0217 51.2655 71.0202 51.2907 71.0179L51.3109 71.0156C51.7115 70.9687 51.9957 70.6075 51.951 70.2069C51.906 69.8068 51.5436 69.5184 51.1431 69.5603Z" fill="white"></path><path d="M48.3389 69.6524C48.3389 69.6524 48.3286 69.652 48.3282 69.652C47.9246 69.6337 47.5874 69.9473 47.5691 70.3512C47.5512 70.7552 47.8685 71.0974 48.2725 71.1157C48.284 71.1165 48.295 71.1165 48.3065 71.1165C48.6956 71.1165 49.0198 70.8102 49.0374 70.4172C49.0557 70.0133 48.7433 69.6707 48.3389 69.6524Z" fill="white"></path><path d="M42.8374 68.5807L42.8282 68.5772C42.4475 68.4407 42.0325 68.6398 41.8959 69.0205C41.759 69.4012 41.9612 69.8224 42.3419 69.9593C42.4239 69.9887 42.5074 70.0024 42.5894 70.0024C42.8897 70.0024 43.1716 69.8167 43.2788 69.5176C43.4157 69.1369 43.2181 68.7172 42.8374 68.5807Z" fill="white"></path><path d="M53.9071 69.0476L54.0875 69.7575L53.9048 69.0484C53.513 69.1491 53.2773 69.5485 53.378 69.9402C53.4631 70.2706 53.7606 70.4903 54.0868 70.4903C54.1474 70.4903 54.2088 70.4827 54.2703 70.4666C54.2733 70.4659 54.2863 70.4625 54.2897 70.4617C54.6784 70.3556 54.9058 69.9562 54.802 69.5668C54.6983 69.1777 54.2973 68.9461 53.9071 69.0476Z" fill="white"></path><path d="M56.5548 68.1241L56.8451 68.7962L56.5525 68.1249C56.1817 68.2866 56.012 68.718 56.1733 69.0888C56.2935 69.3646 56.5628 69.529 56.8455 69.529C56.9427 69.529 57.0423 69.5092 57.1373 69.468C57.1403 69.4665 57.1522 69.4615 57.1552 69.46C57.5226 69.2941 57.6847 68.8638 57.5207 68.4956C57.3566 68.1271 56.924 67.962 56.5548 68.1241Z" fill="white"></path><path d="M40.0398 34.7363C40.1573 34.7363 40.2767 34.708 40.387 34.6493C40.744 34.4589 40.8787 34.0153 40.6883 33.6582C40.498 33.3016 40.0547 33.1661 39.6976 33.3569L39.6889 33.3614C39.3322 33.5518 39.2014 33.9932 39.3917 34.3502C39.5229 34.5966 39.7778 34.7363 40.0398 34.7363Z" fill="white"></path><path d="M31.5679 42.9169C31.6766 42.9737 31.7929 43.0008 31.9077 43.0008C32.1713 43.0008 32.4262 42.8581 32.557 42.6083L32.57 42.5827C32.7485 42.2195 32.599 41.7805 32.2358 41.6023C31.8753 41.4246 31.4397 41.571 31.2589 41.9292C31.0719 42.2871 31.21 42.7292 31.5679 42.9169Z" fill="white"></path><path d="M30.5365 45.6723C30.6144 45.6986 30.6933 45.7112 30.7715 45.7112C31.0767 45.7112 31.3617 45.5186 31.465 45.2134L31.4746 45.1844C31.5936 44.798 31.3765 44.3879 30.9897 44.2692C30.6063 44.151 30.1993 44.3638 30.0769 44.7453C29.9483 45.1279 30.1539 45.543 30.5365 45.6723Z" fill="white"></path><path d="M33.0127 40.3546C33.1428 40.4492 33.2935 40.495 33.443 40.495C33.6692 40.495 33.8928 40.3901 34.0358 40.1933L34.0454 40.1803C34.2804 39.8515 34.2037 39.3952 33.8756 39.1602C33.5472 38.9249 33.0894 39.0004 32.8537 39.3285L33.4438 39.7626L32.8514 39.3315C32.6133 39.6588 32.6858 40.117 33.0127 40.3546Z" fill="white"></path><path d="M37.553 36.3182C37.7067 36.3182 37.8616 36.2698 37.994 36.1691C38.3205 35.9303 38.3911 35.4722 38.1523 35.1456C37.9131 34.8191 37.4549 34.7485 37.1288 34.9873L37.1105 35.0007C36.7885 35.2452 36.7244 35.7056 36.9689 36.028C37.1131 36.2179 37.3317 36.3182 37.553 36.3182Z" fill="white"></path><path d="M29.8827 56.7798C29.9796 57.0945 30.2687 57.2963 30.5816 57.2963C30.6529 57.2963 30.7257 57.2856 30.7975 57.2635C31.182 57.1456 31.399 56.7382 31.2838 56.3529C31.1736 55.9684 30.775 55.7425 30.387 55.8482C29.9968 55.9546 29.7667 56.3575 29.8732 56.7477C29.8755 56.7554 29.8804 56.7721 29.8827 56.7798Z" fill="white"></path><path d="M35.3407 38.2485C35.531 38.2485 35.7214 38.1748 35.8652 38.0283C36.1509 37.7422 36.1509 37.2784 35.8652 36.9927C35.5791 36.7066 35.1152 36.7066 34.8291 36.9927L34.8169 37.0049C34.5339 37.2936 34.5396 37.7567 34.8284 38.0398C34.9706 38.1794 35.1557 38.2485 35.3407 38.2485Z" fill="white"></path><path d="M30.6924 53.5865C30.6409 53.1886 30.2773 52.9064 29.8791 52.9537C29.4778 53.0017 29.1909 53.366 29.2386 53.7677L29.2428 53.7971C29.2962 54.161 29.6086 54.4219 29.966 54.4219C30.0011 54.4219 30.037 54.4193 30.0732 54.4139C30.4719 54.3559 30.7484 53.9852 30.6924 53.5865Z" fill="white"></path><path d="M29.7723 51.4889C29.78 51.4889 29.7872 51.4893 29.7945 51.4893C30.1889 51.4893 30.5147 51.1753 30.5261 50.7782L30.5269 50.7469C30.5269 50.3422 30.1988 50.0145 29.7945 50.0145C29.3928 50.0145 29.067 50.3372 29.062 50.7374C29.0513 51.141 29.3691 51.4771 29.7723 51.4889Z" fill="white"></path><path d="M29.9328 48.5514C29.9767 48.5591 30.0198 48.5629 30.0629 48.5629C30.4108 48.5629 30.7194 48.3138 30.7831 47.9594C30.785 47.9487 30.7866 47.938 30.7881 47.9273C30.8472 47.5272 30.5706 47.1549 30.1701 47.0961C29.7745 47.0374 29.4041 47.3094 29.3404 47.7038C29.271 48.1013 29.5357 48.4801 29.9328 48.5514Z" fill="white"></path><path d="M64.4823 40.5857C64.6242 40.7917 64.8524 40.902 65.0851 40.902C65.2281 40.902 65.3731 40.86 65.4997 40.7727C65.8328 40.5438 65.9171 40.0875 65.6882 39.7541L65.0793 40.1616L65.6859 39.7507C65.4585 39.4158 65.0031 39.3284 64.6685 39.5554C64.3336 39.7824 64.2462 40.2378 64.4732 40.5728L64.4823 40.5857Z" fill="white"></path><path d="M68.2228 47.956C67.8207 48.001 67.5316 48.3638 67.577 48.7659L67.5808 48.7975C67.633 49.1626 67.9466 49.4262 68.3052 49.4262C68.3395 49.4262 68.3746 49.4239 68.4097 49.4189C68.8068 49.3621 69.0838 48.9963 69.0323 48.5995C68.9861 48.1986 68.6222 47.911 68.2228 47.956Z" fill="white"></path><path d="M66.9867 45.8894L66.9898 45.8989C67.0836 46.2182 67.3754 46.425 67.6921 46.425C67.7603 46.425 67.8298 46.4155 67.8988 46.3949C68.2871 46.2808 68.5092 45.8738 68.3951 45.4854L68.392 45.4759C68.278 45.0876 67.871 44.8655 67.4826 44.98C67.0947 45.094 66.8727 45.5011 66.9867 45.8894Z" fill="white"></path><path d="M65.9521 43.1508C66.0799 43.4105 66.3412 43.562 66.6128 43.562C66.7208 43.562 66.8306 43.538 66.934 43.4868C67.2968 43.3083 67.4475 42.8719 67.2686 42.5088L66.6048 42.8181L67.2678 42.5072C67.0961 42.141 66.6601 41.9835 66.2939 42.1551C65.9277 42.3268 65.7698 42.7628 65.9414 43.129L65.9521 43.1508Z" fill="white"></path><path d="M62.638 38.2984C62.7815 38.4449 62.9711 38.5182 63.161 38.5182C63.346 38.5182 63.5311 38.4487 63.6737 38.3087C63.9606 38.028 63.9671 37.5691 63.6905 37.2799C63.4162 36.9843 62.9539 36.9663 62.6571 37.2402C62.3599 37.5145 62.3416 37.978 62.6159 38.2752L62.638 38.2984Z" fill="white"></path><path d="M68.4607 51.0142C68.0583 51.0039 67.7214 51.3194 67.7073 51.7219C67.689 52.1228 67.9969 52.4642 68.3982 52.4867C68.4123 52.4875 68.4256 52.4878 68.4397 52.4878C68.8254 52.4878 69.1485 52.1861 69.1703 51.7959L69.1714 51.7657C69.1828 51.3617 68.8647 51.026 68.4607 51.0142Z" fill="white"></path><path d="M57.9537 34.702L57.9713 34.7116C58.0804 34.7695 58.1975 34.797 58.3127 34.797C58.5732 34.797 58.8254 34.6566 58.9577 34.4106C59.1485 34.0554 59.0142 33.6114 58.6602 33.4191L58.3058 34.06L58.6579 33.4176C58.3031 33.2231 57.858 33.3531 57.6634 33.7079C57.4692 34.0623 57.5989 34.5078 57.9537 34.702Z" fill="white"></path><path d="M60.4308 36.3083L60.4423 36.3171C60.5746 36.4174 60.7299 36.4658 60.8844 36.4658C61.1056 36.4658 61.3242 36.3659 61.4684 36.1759C61.7129 35.8536 61.6496 35.3943 61.3277 35.1498L61.3227 35.1463C61.0019 34.8999 60.5422 34.9602 60.2958 35.281C60.0494 35.6018 60.11 36.0619 60.4308 36.3083Z" fill="white"></path><path d="M74.548 62.1025L71.1098 58.6582C70.8172 58.3652 70.4285 58.2039 70.0146 58.2039C69.6011 58.2039 69.212 58.3652 68.9198 58.6582L68.84 58.7379L68.6142 58.5121C68.3353 58.2325 68.1194 57.9071 67.9729 57.5527C67.96 57.5058 67.9428 57.46 67.9207 57.4169C67.8085 57.1018 67.7502 56.7665 67.7502 56.422V55.4478C67.8169 55.4829 67.8898 55.5084 67.968 55.5218C68.0099 55.529 68.0515 55.5325 68.0927 55.5325C68.4402 55.5325 68.7477 55.2845 68.8122 54.932C68.8904 54.5361 68.6337 54.1512 68.2373 54.0718C68.063 54.0371 67.8905 54.0672 67.7456 54.1458C67.7006 53.1052 67.2752 52.1332 66.5352 51.3916L63.1996 48.0503C62.4512 47.3007 61.4559 46.888 60.3973 46.888C59.5779 46.888 58.7975 47.1363 58.139 47.596L57.785 47.2401V38.863C57.785 37.8532 57.4184 36.879 56.7532 36.1202C56.2798 35.5808 56.0192 34.8881 56.0192 34.1694V33.5556H56.0696C56.9233 33.5556 57.618 32.8609 57.618 32.0068V27.1347C57.618 26.2806 56.9233 25.5859 56.0696 25.5859H42.3882C41.5344 25.5859 40.8398 26.2806 40.8398 27.1347V32.0068C40.8398 32.8609 41.5344 33.5556 42.3882 33.5556H42.5011V33.8768C42.5011 34.6664 42.194 35.4088 41.6367 35.9669L40.16 37.4462C39.3764 38.2313 38.945 39.2746 38.945 40.3847V45.1099C38.945 45.752 39.0991 46.3581 39.3703 46.8952C38.3991 46.9513 37.4939 47.356 36.8004 48.0503L33.4648 51.3916C32.6813 52.1767 32.2498 53.2204 32.2498 54.3301V56.422C32.2498 57.2117 31.9431 57.954 31.3858 58.5121L31.1626 58.7357C31.1615 58.7364 31.1607 58.7372 31.16 58.7379L31.0806 58.6582C30.788 58.3652 30.3993 58.2039 29.9854 58.2039C29.5719 58.2039 29.1828 58.3652 28.8906 58.6582L25.452 62.1025C24.8493 62.7064 24.8493 63.689 25.452 64.2929L26.6296 65.472C26.9154 65.7585 27.3792 65.7589 27.6653 65.4732C27.9514 65.1871 27.9522 64.7236 27.6661 64.4371L26.4889 63.2576C26.4557 63.2244 26.4557 63.1706 26.4889 63.1374L29.9274 59.6931C29.9595 59.6611 30.0117 59.6607 30.0438 59.6931L30.6416 60.2921H30.6419L38.8042 68.4685L39.7186 69.3848C39.7518 69.418 39.7518 69.4717 39.7186 69.5049L36.2804 72.9492C36.248 72.9816 36.1958 72.9816 36.1637 72.9492L29.7398 66.5142C29.454 66.2277 28.9902 66.2273 28.7041 66.5131C28.4176 66.7992 28.4172 67.2626 28.7029 67.5491L35.1273 73.9841C35.4195 74.2771 35.8086 74.4385 36.2225 74.4385C36.636 74.4385 37.0247 74.2771 37.3173 73.9841L40.7555 70.5399C41.3582 69.9364 41.3582 68.9537 40.7555 68.3498L40.7181 68.3125L41.1518 67.878C41.6584 67.3702 42.3313 67.065 43.0466 67.0189C44.0533 66.9537 45.0005 66.5241 45.7134 65.8096L48.872 62.6442C49.7829 62.405 50.4921 61.6631 50.6847 60.7338C51.0094 60.8883 51.3721 60.9753 51.7551 60.9753C53.1326 60.9753 54.2534 59.8534 54.2534 58.474V56.7348C54.5685 56.8787 54.9183 56.9595 55.2868 56.9595C56.6643 56.9595 57.7847 55.8376 57.7847 54.4582V49.3168L60.0376 51.5808C60.1807 51.7246 60.3687 51.7963 60.5568 51.7963C60.7437 51.7963 60.9306 51.7254 61.0737 51.5831C61.3602 51.2978 61.3613 50.8343 61.076 50.5474L59.1976 48.6599C59.5612 48.4596 59.9709 48.3528 60.3973 48.3528C61.0641 48.3528 61.6913 48.613 62.1628 49.0856L65.4984 52.4265C66.0057 52.935 66.2853 53.611 66.2853 54.3301V56.422C66.2853 57.6027 66.7442 58.7124 67.5774 59.547L67.8047 59.7748L66.7423 60.8391L60.3168 67.2756L59.9586 66.9167C59.9548 66.9132 59.9514 66.9094 59.9476 66.906L59.8846 66.8427C59.1263 66.0831 58.1188 65.6265 57.0484 65.5571C56.3972 65.5148 55.7846 65.237 55.3211 64.7732L52.9144 62.3795C52.6276 62.0941 52.1637 62.0953 51.8784 62.3821C51.5934 62.669 51.5945 63.1329 51.8814 63.4178L54.2866 65.8096C54.9995 66.5241 55.9467 66.9537 56.9538 67.0189C57.6687 67.065 58.3416 67.3702 58.8482 67.8776L58.8837 67.9131C58.9027 67.9348 58.923 67.955 58.9443 67.9741L59.2819 68.3121L59.2445 68.3498C58.6418 68.9537 58.6418 69.936 59.2445 70.5399L62.6827 73.9841C62.9753 74.2771 63.364 74.4385 63.7779 74.4385C64.1914 74.4385 64.5805 74.2771 64.8731 73.9841L74.548 64.2925C75.1507 63.6887 75.1507 62.7064 74.548 62.1025ZM68.2411 54.8195L68.2274 54.8172L68.0939 54.7901L68.2411 54.8195ZM44.6766 64.7747C44.2154 65.237 43.6028 65.5148 42.952 65.5571C41.8812 65.6265 40.8737 66.0831 40.1154 66.8427L39.6832 67.2756L39.2941 66.8858C39.2891 66.8808 39.2841 66.8755 39.2792 66.8709L32.1953 59.7748L32.4226 59.547C33.2558 58.7124 33.7147 57.6027 33.7147 56.422V54.3301C33.7147 53.611 33.9939 52.935 34.5016 52.4265L37.8372 49.0856C38.3087 48.613 38.9359 48.3528 39.6027 48.3528C40.0303 48.3528 40.4415 48.4604 40.8062 48.6622L38.9248 50.5466C38.6391 50.8327 38.6395 51.2966 38.9256 51.5823C39.0686 51.725 39.2559 51.7963 39.4432 51.7963C39.6309 51.7963 39.8186 51.7246 39.9616 51.5816L42.2089 49.3301V58.474C42.2089 59.8534 43.3296 60.9753 44.7071 60.9753C45.0954 60.9753 45.4632 60.886 45.7912 60.7273C45.94 61.4532 46.4039 62.0651 47.0325 62.4138L44.6766 64.7747ZM56.3202 54.4586C56.3202 55.0301 55.8563 55.4951 55.2868 55.4951C54.7169 55.4951 54.2534 55.0301 54.2534 54.4586V46.2887C54.2534 45.8843 53.9257 45.5563 53.521 45.5563C53.1162 45.5563 52.7885 45.8843 52.7885 46.2887V58.4743C52.7885 59.0458 52.3251 59.5104 51.7551 59.5104C51.2436 59.5104 50.819 59.1358 50.737 58.6456V46.2803C50.737 45.8755 50.4093 45.5479 50.0046 45.5479C49.8745 45.5479 49.752 45.5822 49.646 45.6417C49.4144 45.7649 49.2569 46.0083 49.2569 46.2887V58.474C49.2569 58.567 49.2622 58.6582 49.2722 58.7486V60.2245C49.2722 60.796 48.8087 61.261 48.2388 61.261C47.6692 61.261 47.2057 60.796 47.2057 60.2245V46.2715C47.2057 45.8672 46.8777 45.5391 46.4733 45.5391C46.0686 45.5391 45.7405 45.8672 45.7405 46.2715V58.474C45.7405 59.0454 45.277 59.5104 44.7075 59.5104C44.1376 59.5104 43.6741 59.0454 43.6741 58.474V44.8498C43.6741 44.445 43.346 44.117 42.9417 44.117C42.5369 44.117 42.2092 44.445 42.2092 44.8498V47.3698C42.1478 47.3896 42.0883 47.4174 42.033 47.4541C41.0858 47.0982 40.4099 46.1819 40.4099 45.1099V40.3847C40.4099 39.6656 40.6895 38.9896 41.1968 38.4811L42.6735 37.0018C43.507 36.1671 43.9659 35.0574 43.9659 33.8768V33.5556H45.4384C45.8431 33.5556 46.1708 33.2275 46.1708 32.8232C46.1708 32.4184 45.8431 32.0908 45.4384 32.0908H42.3882C42.342 32.0908 42.3046 32.053 42.3046 32.0068V27.1347C42.3046 27.0885 42.342 27.0508 42.3882 27.0508H56.0692C56.1157 27.0508 56.1531 27.0885 56.1531 27.1347V32.0068C56.1531 32.0534 56.1157 32.0908 56.0692 32.0908H48.877C48.4726 32.0908 48.1445 32.4184 48.1445 32.8232C48.1445 33.2275 48.4726 33.5556 48.877 33.5556H54.5544V34.1694C54.5544 35.2436 54.9438 36.2793 55.6515 37.0865C56.0825 37.5778 56.3202 38.2088 56.3202 38.863V54.4586ZM73.5111 63.2576L63.8363 72.9492C63.8203 72.9656 63.8008 72.9736 63.7779 72.9736C63.7554 72.9736 63.736 72.9656 63.7196 72.9492L60.2814 69.5049C60.2482 69.4717 60.2482 69.418 60.2814 69.3848L60.8349 68.8301L60.8353 68.8297L66.4516 63.2038L69.9562 59.6931C69.9883 59.6607 70.0405 59.6607 70.0726 59.6931L73.5111 63.1374C73.5443 63.1706 73.5443 63.2244 73.5111 63.2576Z" fill="white"></path><path d="M44.7072 28.7894C44.2773 28.7894 43.9275 29.14 43.9275 29.5707C43.9275 30.0017 44.2773 30.3519 44.7072 30.3519C45.1375 30.3519 45.4873 30.0017 45.4873 29.5707C45.4873 29.14 45.1375 28.7894 44.7072 28.7894Z" fill="white"></path><path d="M70.2542 62.1765C69.8239 62.1765 69.4741 62.5271 69.4741 62.9578C69.4741 63.3884 69.8239 63.739 70.2542 63.739C70.6841 63.739 71.034 63.3884 71.034 62.9578C71.034 62.5271 70.6841 62.1765 70.2542 62.1765Z" fill="white"></path><path d="M37.2053 69.6486C37.2053 69.2179 36.8555 68.8674 36.4256 68.8674C35.9953 68.8674 35.6455 69.2179 35.6455 69.6486C35.6455 70.0793 35.9953 70.4299 36.4256 70.4299C36.8555 70.4299 37.2053 70.0793 37.2053 69.6486Z" fill="white"></path></svg>