<svg xmlns="http://www.w3.org/2000/svg" width="100" height="100" viewBox="0 0 100 100" fill="none"><circle cx="50" cy="50" r="49" stroke="white" stroke-width="2"></circle><path d="M59.8817 35.4861C57.3038 32.8761 53.8652 31.4128 50.1997 31.3651C46.4815 31.3166 42.9662 32.7357 40.2994 35.3602C37.634 37.9832 36.16 41.4736 36.149 45.1888C36.1372 49.2099 37.8687 53.0337 40.8994 55.68C43.0936 57.5957 44.3521 60.3201 44.3521 63.1537V70.1495C44.3521 72.824 46.528 74.9999 49.2025 74.9999H50.8302C53.5043 74.9999 55.6802 72.824 55.6802 70.1495V63.2433C55.6802 60.3289 56.9147 57.593 59.0673 55.7368C62.1278 53.0982 63.8834 49.2686 63.8834 45.2311C63.8834 41.5591 62.4624 38.098 59.8817 35.4861ZM50.004 52.2608H49.3562C49.0022 52.2608 48.7142 51.9728 48.7142 51.6184C48.7142 51.2644 49.0022 50.9764 49.3562 50.9764C49.7133 50.9764 50.004 51.2671 50.004 51.6242V52.2608ZM50.0162 58.0649C50.5548 58.0649 50.9927 58.5028 50.9927 59.0415V62.3618H49.0396V59.0415C49.0396 58.5028 49.4775 58.0649 50.0162 58.0649ZM53.7271 64.3149V65.7511H46.3052V64.3149H53.7271ZM46.3052 67.7043H53.7271V69.1405H46.3052V67.7043ZM50.8298 73.0467H49.2025C47.9353 73.0467 46.8565 72.2289 46.4639 71.0936H53.5684C53.1759 72.2289 52.0971 73.0467 50.8298 73.0467ZM57.7921 54.2578C55.4281 56.296 53.9865 59.2116 53.7588 62.3618H52.9459V59.0415C52.9459 58.1694 52.5625 57.3859 51.9563 56.8488C51.9563 56.8446 51.9571 56.8404 51.9571 56.8358V53.6261C52.7525 53.0554 53.2713 52.1231 53.2713 51.0718V49.5593C53.2713 47.4787 51.5787 45.7858 49.4978 45.7858H47.7377C47.1983 45.7858 46.7611 46.2229 46.7611 46.7623C46.7611 47.3017 47.1983 47.7389 47.7377 47.7389H49.4978C50.5018 47.7389 51.3181 48.5556 51.3181 49.5593V49.9186C50.8409 49.3704 50.1386 49.0233 49.3562 49.0233C47.9253 49.0233 46.7611 50.1876 46.7611 51.6188C46.7611 53.0497 47.9253 54.214 49.3562 54.214H50.004V56.1122C48.3942 56.1186 47.0865 57.4301 47.0865 59.0415V62.3618H46.2782C46.0641 59.2532 44.5989 56.317 42.1842 54.2086C39.5795 51.9351 38.0918 48.6495 38.1021 45.1949C38.1116 42.005 39.3785 39.0067 41.6696 36.7522C43.9619 34.4962 46.9797 33.2763 50.1741 33.3182C56.6564 33.4021 61.9302 38.7465 61.9302 45.2311C61.9302 48.7002 60.4219 51.99 57.7921 54.2578Z" fill="white"></path><path d="M50.2135 36.1152H50.1982C49.6599 36.1099 49.2216 36.5413 49.2152 37.0803C49.209 37.6197 49.6458 38.0622 50.1852 38.0683H50.2001H50.2119C50.7456 38.0683 51.1771 37.6388 51.1832 37.1032C51.1896 36.5638 50.7529 36.1217 50.2135 36.1152Z" fill="white"></path><path d="M54.5089 37.2612C54.0374 36.9988 53.4427 37.1682 53.1803 37.6397C52.9182 38.1108 53.0872 38.7055 53.5587 38.9679C55.8311 40.2333 57.2425 42.6331 57.2425 45.2313C57.2425 45.7707 57.6797 46.2078 58.2191 46.2078C58.7585 46.2078 59.1957 45.7707 59.1957 45.2313C59.1957 41.9251 57.3997 38.8714 54.5089 37.2612Z" fill="white"></path><path d="M50.0164 29.5898C50.5558 29.5898 50.9929 29.1527 50.9929 28.6133V25.9766C50.9929 25.4372 50.5558 25 50.0164 25C49.477 25 49.0398 25.4372 49.0398 25.9766V28.6133C49.0398 29.1527 49.477 29.5898 50.0164 29.5898Z" fill="white"></path><path d="M69.271 44.2547H66.6343C66.0949 44.2547 65.6577 44.6919 65.6577 45.2313C65.6577 45.7707 66.0949 46.2078 66.6343 46.2078H69.271C69.8104 46.2078 70.2476 45.7707 70.2476 45.2313C70.2476 44.6919 69.8104 44.2547 69.271 44.2547Z" fill="white"></path><path d="M33.3984 44.2547H30.7617C30.2223 44.2547 29.7852 44.6919 29.7852 45.2313C29.7852 45.7707 30.2223 46.2078 30.7617 46.2078H33.3984C33.9378 46.2078 34.375 45.7707 34.375 45.2313C34.375 44.6919 33.9378 44.2547 33.3984 44.2547Z" fill="white"></path><path d="M62.4576 56.2916C62.0762 55.9101 61.4578 55.9101 61.0763 56.2916C60.6953 56.6727 60.6953 57.291 61.0763 57.6725L62.941 59.5371C63.1317 59.7275 63.3816 59.8232 63.6314 59.8232C63.8813 59.8232 64.1312 59.7275 64.3219 59.5371C64.7034 59.1557 64.7034 58.5373 64.3219 58.1558L62.4576 56.2916Z" fill="white"></path><path d="M37.5751 34.1709C37.7659 34.3616 38.0157 34.457 38.2656 34.457C38.5155 34.457 38.7657 34.3616 38.9561 34.1709C39.3375 33.7898 39.3375 33.1714 38.9561 32.79L37.0918 30.9253C36.7104 30.5443 36.092 30.5443 35.7105 30.9253C35.3291 31.3068 35.3294 31.9252 35.7105 32.3066L37.5751 34.1709Z" fill="white"></path><path d="M62.9411 30.9258L61.0769 32.79C60.6954 33.1715 60.6954 33.7898 61.0769 34.1713C61.2676 34.362 61.5175 34.4574 61.7673 34.4574C62.0172 34.4574 62.2671 34.362 62.4578 34.1713L64.322 32.3067C64.7035 31.9252 64.7035 31.3068 64.322 30.9254C63.9409 30.5439 63.3226 30.5443 62.9411 30.9258Z" fill="white"></path><path d="M37.5751 56.2916L35.7109 58.1558C35.3294 58.5373 35.3294 59.1557 35.7109 59.5371C35.9016 59.7275 36.1515 59.8232 36.4014 59.8232C36.6512 59.8232 36.9011 59.7275 37.0918 59.5371L38.9561 57.6725C39.3375 57.291 39.3375 56.6727 38.9561 56.2916C38.575 55.9101 37.9566 55.9101 37.5751 56.2916Z" fill="white"></path></svg>