<svg xmlns="http://www.w3.org/2000/svg" width="100" height="100" viewBox="0 0 100 100" fill="none"><circle cx="50" cy="50" r="49" stroke="white" stroke-width="2"></circle><path d="M58.7891 25C58.2498 25 57.8125 25.4373 57.8125 25.9766V30.4688C57.8125 31.008 58.2498 31.4453 58.7891 31.4453C59.3283 31.4453 59.7656 31.008 59.7656 30.4688V25.9766C59.7656 25.4373 59.3283 25 58.7891 25Z" fill="white"></path><path d="M36.3281 55.4688C35.7891 55.4688 35.3516 55.9062 35.3516 56.4453C35.3516 56.9844 35.7891 57.4219 36.3281 57.4219C36.8672 57.4219 37.3047 56.9844 37.3047 56.4453C37.3047 55.9062 36.8672 55.4688 36.3281 55.4688Z" fill="white"></path><path d="M72.4609 53.5156C72.4609 51.3617 70.7086 49.6094 68.5547 49.6094H61.2645C62.3931 46.7185 62.8499 43.3157 62.7618 40.2867C62.745 39.7087 62.7229 39.3744 62.6929 39.164C62.6424 37.0539 60.9098 35.3516 58.7891 35.3516C56.6352 35.3516 54.8828 37.1039 54.8828 39.2578V40.2344C54.8828 46.4107 46.9518 49.881 40.9664 51.369C40.5139 50.3345 39.4809 49.6094 38.2812 49.6094H28.5156C27.9764 49.6094 27.5391 50.0467 27.5391 50.5859V74.0234C27.5391 74.5627 27.9764 75 28.5156 75H38.2812C39.4729 75 40.4999 74.2845 40.9571 73.2608C41.4527 73.388 41.9128 73.5081 42.3375 73.619C45.7472 74.5096 47.6254 75 52.1934 75H62.6953C64.8492 75 66.6016 73.2477 66.6016 71.0938C66.6016 70.2906 66.3577 69.5436 65.9404 68.9221C67.449 68.3944 68.5547 66.953 68.5547 65.2344C68.5547 64.4342 68.3168 63.6847 67.9008 63.0604C69.4027 62.5318 70.5078 61.0938 70.5078 59.375C70.5078 58.5719 70.264 57.8248 69.8467 57.2033C71.3553 56.6757 72.4609 55.2343 72.4609 53.5156ZM39.2578 72.0703C39.2578 72.6088 38.8197 73.0469 38.2812 73.0469H29.4922V51.5625H38.2812C38.8197 51.5625 39.2578 52.0006 39.2578 52.5391V72.0703ZM68.5547 55.4688C66.4601 55.4688 65.9607 55.4688 63.6719 55.4688C63.1326 55.4688 62.6953 55.9061 62.6953 56.4453C62.6953 56.9846 63.1326 57.4219 63.6719 57.4219H66.6016C67.6785 57.4219 68.5547 58.298 68.5547 59.375C68.5547 60.4537 67.6803 61.3281 66.6016 61.3281H61.7188C61.1795 61.3281 60.7422 61.7654 60.7422 62.3047C60.7422 62.8439 61.1795 63.2812 61.7188 63.2812H64.6484C65.7126 63.2812 66.6016 64.1313 66.6016 65.2344C66.6016 66.3131 65.7271 67.1875 64.6484 67.1875C62.5538 67.1875 62.0545 67.1875 59.7656 67.1875C59.2264 67.1875 58.7891 67.6248 58.7891 68.1641C58.7891 68.7033 59.2264 69.1406 59.7656 69.1406H62.6953C63.7723 69.1406 64.6484 70.0168 64.6484 71.0938C64.6484 72.1707 63.7723 73.0469 62.6953 73.0469H52.1934C47.8763 73.0469 46.1901 72.6065 42.8311 71.7293C42.339 71.6008 41.7992 71.4599 41.2109 71.3099V53.3228C48.2781 51.6394 56.8359 47.5304 56.8359 40.2344V39.2578C56.8359 38.1809 57.7121 37.3047 58.7891 37.3047C59.8641 37.3047 60.7401 38.1795 60.7422 39.2548V39.2578C60.7422 39.6822 61.2719 44.8909 59.1479 49.6094H55.8594C55.3201 49.6094 54.8828 50.0467 54.8828 50.5859C54.8828 51.1252 55.3201 51.5625 55.8594 51.5625C56.5413 51.5625 67.4416 51.5625 68.5547 51.5625C69.6316 51.5625 70.5078 52.4387 70.5078 53.5156C70.5078 54.5943 69.6334 55.4688 68.5547 55.4688Z" fill="white"></path><path d="M36.3281 59.375C35.7889 59.375 35.3516 59.8123 35.3516 60.3516V68.1641C35.3516 68.7033 35.7889 69.1406 36.3281 69.1406C36.8674 69.1406 37.3047 68.7033 37.3047 68.1641V60.3516C37.3047 59.8123 36.8674 59.375 36.3281 59.375Z" fill="white"></path><path d="M50.9766 37.3047H47.0703C46.5311 37.3047 46.0938 37.742 46.0938 38.2812C46.0938 38.8205 46.5311 39.2578 47.0703 39.2578H50.9766C51.5158 39.2578 51.9531 38.8205 51.9531 38.2812C51.9531 37.742 51.5158 37.3047 50.9766 37.3047Z" fill="white"></path><path d="M70.5078 37.3047H66.6016C66.0623 37.3047 65.625 37.742 65.625 38.2812C65.625 38.8205 66.0623 39.2578 66.6016 39.2578H70.5078C71.0471 39.2578 71.4844 38.8205 71.4844 38.2812C71.4844 37.742 71.0471 37.3047 70.5078 37.3047Z" fill="white"></path><path d="M67.7657 29.3047C67.3843 28.9235 66.7661 28.9235 66.3846 29.3047L63.6229 32.0664C63.2416 32.4477 63.2416 33.0661 63.6229 33.4475C64.0045 33.8289 64.6225 33.8288 65.0041 33.4475L67.7657 30.6859C68.1471 30.3045 68.1471 29.6862 67.7657 29.3047Z" fill="white"></path><path d="M53.9552 32.0664L51.1935 29.3047C50.8121 28.9235 50.1939 28.9235 49.8124 29.3047C49.431 29.6861 49.431 30.3044 49.8124 30.6859L52.574 33.4475C52.9556 33.8289 53.5737 33.8288 53.9552 33.4475C54.3365 33.0662 54.3365 32.4478 53.9552 32.0664Z" fill="white"></path></svg>