<svg xmlns="http://www.w3.org/2000/svg" width="100" height="100" viewBox="0 0 100 100" fill="none"><circle cx="50" cy="50" r="49" stroke="white" stroke-width="2"></circle><path d="M69.767 63.1554C70.504 62.2932 70.9503 61.1755 70.9503 59.9548V59.4269C70.9503 56.7059 68.7366 54.4922 66.0156 54.4922C63.2946 54.4922 61.0809 56.7059 61.0809 59.4269V59.9548C61.0809 61.1755 61.5273 62.2932 62.2643 63.1554C60.4603 63.6196 58.9378 64.7903 58.0078 66.3532C57.0778 64.7903 55.5553 63.6196 53.7514 63.1554C54.4884 62.2932 54.9347 61.1755 54.9347 59.9548V59.4269C54.9347 56.7059 52.721 54.4922 50 54.4922C47.279 54.4922 45.0653 56.7059 45.0653 59.4269V59.9548C45.0653 61.1755 45.5116 62.2932 46.2486 63.1554C44.4447 63.6196 42.9222 64.7903 41.9922 66.3532C41.0622 64.7903 39.5397 63.6196 37.7357 63.1554C38.4727 62.2932 38.9191 61.1755 38.9191 59.9548V59.4269C38.9191 56.7059 36.7054 54.4922 33.9844 54.4922C31.2634 54.4922 29.0497 56.7059 29.0497 59.4269V59.9548C29.0497 61.1755 29.496 62.2932 30.233 63.1554C27.2274 63.929 25 66.6618 25 69.9055V74.0234C25 74.5628 25.4372 75 25.9766 75H74.0234C74.5628 75 75 74.5628 75 74.0234V69.9055C75 66.6618 72.7726 63.929 69.767 63.1554ZM63.0341 59.4269C63.0341 57.7827 64.3715 56.4453 66.0156 56.4453C67.6598 56.4453 68.9972 57.7827 68.9972 59.4269V59.9548C68.9972 61.599 67.6598 62.9364 66.0156 62.9364C64.3715 62.9364 63.0341 61.599 63.0341 59.9548V59.4269ZM47.0184 59.4269C47.0184 57.7827 48.3559 56.4453 50 56.4453C51.6441 56.4453 52.9816 57.7827 52.9816 59.4269V59.9548C52.9816 61.599 51.6441 62.9364 50 62.9364C48.3559 62.9364 47.0184 61.599 47.0184 59.9548V59.4269ZM31.0028 59.4269C31.0028 57.7827 32.3402 56.4453 33.9844 56.4453C35.6285 56.4453 36.9659 57.7827 36.9659 59.4269V59.9548C36.9659 61.599 35.6285 62.9364 33.9844 62.9364C32.3402 62.9364 31.0028 61.599 31.0028 59.9548V59.4269ZM26.9531 69.9055C26.9531 67.1398 29.203 64.8895 31.9691 64.8895H35.9997C38.7653 64.8895 41.0156 67.1398 41.0156 69.9055V73.0469H26.9531V69.9055ZM42.9688 69.9055C42.9688 67.1398 45.2187 64.8895 47.9847 64.8895H52.0153C54.781 64.8895 57.0312 67.1398 57.0312 69.9055V73.0469H42.9688V69.9055ZM73.0469 73.0469H58.9844V69.9055C58.9844 67.1398 61.2343 64.8895 64.0003 64.8895H68.0309C70.7966 64.8895 73.0469 67.1398 73.0469 69.9055V73.0469Z" fill="white"></path><path d="M32.5527 44.5885L32.5439 50.0107C32.5432 50.3883 32.7606 50.7328 33.1017 50.8945C33.2352 50.9579 33.3782 50.9892 33.5201 50.9892C33.7418 50.9892 33.9611 50.9136 34.1389 50.7679L39.6553 46.2528H45.7581L49.2493 50.6218C49.44 50.8606 49.7326 50.9979 50.037 50.9884C50.3426 50.9808 50.6268 50.8305 50.8049 50.5825L53.9185 46.2524H60.384L65.8752 50.7668C66.1671 51.0067 66.571 51.0567 66.9125 50.8953C67.2543 50.7339 67.4721 50.3899 67.4721 50.0122V44.5728C70.5029 42.6258 72.3633 39.2494 72.3633 35.6262C72.3633 29.7668 67.5964 25 61.7371 25H38.2629C32.4036 25 27.6367 29.7668 27.6367 35.6262C27.6367 39.2616 29.5063 42.6441 32.5527 44.5885ZM38.2629 26.9531H61.7371C66.5195 26.9531 70.4102 30.8441 70.4102 35.6262C70.4102 38.7413 68.7252 41.6328 66.0133 43.1736C65.7078 43.3468 65.519 43.671 65.519 44.0224V47.9454L61.3537 44.5217C61.179 44.3779 60.96 44.2993 60.7338 44.2993H53.418C53.1036 44.2993 52.8088 44.4508 52.6253 44.706L49.9714 48.3963L46.991 44.6663C46.8056 44.4344 46.5248 44.2993 46.228 44.2993H39.3066C39.0812 44.2993 38.8626 44.3775 38.6879 44.5202L34.5005 47.9481L34.5066 44.0384C34.5074 43.6852 34.3174 43.3594 34.0099 43.1862C31.2836 41.6489 29.5898 38.752 29.5898 35.6262C29.5898 30.8441 33.4805 26.9531 38.2629 26.9531Z" fill="white"></path><path d="M61.7373 30.8594H61.7701H61.7739C62.3114 30.8594 62.7486 30.4249 62.7505 29.8866C62.7528 29.3472 62.3171 28.9085 61.7777 28.9062H61.7373C61.1979 28.9062 60.7607 29.3434 60.7607 29.8828C60.7607 30.4222 61.1979 30.8594 61.7373 30.8594Z" fill="white"></path><path d="M64.8683 32.0355C65.9078 32.9434 66.5041 34.2523 66.5041 35.6263C66.5041 36.9275 65.9872 38.1436 65.0488 39.0515C64.6612 39.4265 64.6509 40.0445 65.0255 40.4325C65.2174 40.6304 65.4722 40.73 65.7278 40.73C65.9723 40.73 66.2168 40.6388 66.4064 40.4553C67.729 39.1763 68.4572 37.4616 68.4572 35.6263C68.4572 33.6881 67.6172 31.8429 66.1531 30.5642C65.7469 30.2094 65.13 30.2514 64.7753 30.6577C64.4205 31.0639 64.4621 31.6808 64.8683 32.0355Z" fill="white"></path><path d="M46.9986 38.6978C48.2135 39.822 49.4133 40.641 49.4636 40.6753C49.6292 40.7882 49.821 40.8443 50.0129 40.8443C50.2044 40.8443 50.3963 40.7879 50.5619 40.6753C50.6122 40.641 51.8119 39.822 53.0269 38.6978C54.8202 37.0392 55.6915 35.6216 55.6915 34.3651C55.6915 32.1834 54.0317 30.4084 51.9912 30.4084C51.2867 30.4084 50.5996 30.6255 50.0129 31.0219C49.4255 30.6255 48.7388 30.4084 48.0342 30.4084C45.9938 30.4084 44.334 32.183 44.334 34.3651C44.334 35.6216 45.2053 37.0388 46.9986 38.6978ZM48.0342 32.3616C48.5023 32.3616 48.9425 32.5725 49.274 32.9559C49.4598 33.1703 49.7291 33.2935 50.0129 33.2935C50.2964 33.2935 50.5657 33.1703 50.7514 32.9559C51.0829 32.5725 51.5232 32.3616 51.9912 32.3616C52.9548 32.3616 53.7384 33.2603 53.7384 34.3651C53.7384 35.4576 51.6803 37.4279 50.0122 38.6688C48.344 37.4294 46.2867 35.4606 46.2867 34.3651C46.2871 33.2603 47.0706 32.3616 48.0342 32.3616Z" fill="white"></path></svg>